<mxfile host="app.diagrams.net" modified="2024-06-13T07:10:32.344Z" agent="Mozilla/5.0 (Windows NT 10.0; Win64; x64) AppleWebKit/537.36 (KHTML, like Gecko) Chrome/125.0.0.0 Safari/537.36 Edg/125.0.0.0" version="24.5.3" etag="PI65y5ZCkvyv9Fhxty9v" type="github">
  <diagram name="第 1 页" id="asE2x_SkPyq1BEK_DMBh">
    <mxGraphModel>
      <root>
        <mxCell id="0" />
        <mxCell id="1" parent="0" />
      </root>
    </mxGraphModel>
  </diagram>
</mxfile>
